<svg xmlns:xlink="http://www.w3.org/1999/xlink" xmlns="http://www.w3.org/2000/svg" width="522" height="296" viewBox="0 0 522 296" fill="none">
<path d="M151.9 259.09C145.77 259.09 140.8 254.12 140.8 247.99V149.87H118.61V247.99C118.61 270.18 133.52 281.28 151.9 281.28H157.65V259.09H151.9Z" fill="#009FE3"/>
<path d="M19.36 236.65C19.36 261.19 37.66 281.29 63.67 281.29C89.84 281.29 108.13 261.19 108.13 236.65C108.13 212.27 89.51 192.51 66.68 192.51C56.9 192.51 48.02 195.71 41.55 201.97V149.88H19.36V236.65ZM63.67 212.6C75.91 212.6 85.81 222.98 85.81 236.49C85.81 250.49 75.91 260.86 63.67 260.86C51.41 260.86 41.51 249.99 41.51 236.49C41.51 223.31 51.41 212.6 63.67 212.6Z" fill="#009FE3"/>
<path d="M190.27 194.26H168.08V242.43C168.08 265.24 182.24 281.29 206.57 281.29C230.22 281.29 245.76 264.56 245.76 242.43V194.26H223.46L223.48 242.78C223.48 252.24 216.83 259.39 206.72 259.39C196.32 259.39 190.28 252.53 190.28 242.78L190.27 194.26Z" fill="#009FE3"/>
<path d="M344.22 228.41C340.26 207.49 322.13 192.51 300.55 192.51C276.09 192.51 256.25 211.74 256.25 237.06C256.25 262.38 276.09 281.28 300.55 281.28C319.79 281.28 336.27 269.58 342.43 252.27H317.8C313.82 257.97 307.58 261.39 300.55 261.39C294.03 261.39 288.19 258.45 284.2 253.48L344.22 228.41ZM300.55 212.4C306.67 212.4 312.19 215.07 316.15 219.63L278.91 235.19C279.78 221.66 289.14 212.4 300.55 212.4Z" fill="#009FE3"/>
<path d="M399.44 210.81C397.71 209.3 395.2 207.67 392.54 205.94C385.46 201.34 377.44 196.13 376.52 188.4C375.86 183.02 378.46 178.07 383.48 175.16C387.91 172.59 395.63 171.13 403.19 175.18L413.7 154.88C404.38 149.89 393.05 148.49 382.39 151.3C369.01 154.78 358.91 164.57 355.38 177.49C352.75 186.93 354.11 197.22 359.1 205.71C363.47 213.14 370.2 217.57 376.15 221.48C379.38 223.61 382.17 225.44 384.34 227.58C388.58 231.31 390.84 236.59 390.5 242.02C390.16 247.44 387.26 252.36 382.55 255.51C375.98 259.85 367.88 260.01 360.2 255.97L349.91 275.84C363.38 282.66 380.26 284.12 395.43 274.05C404.35 268.25 410.54 258.75 412.41 247.97C414.73 234.06 409.76 219.82 399.44 210.81Z" fill="#E30613"/>
<path d="M463.55 220.54V242.73H480.2V242.78C480.2 252.53 474.16 259.39 463.76 259.39C453.65 259.39 447 252.24 447 242.78V188.38C447 178.92 453.65 171.77 463.76 171.77C471.61 171.77 476.97 175.68 479.13 181.79H501.92C499.3 162.74 485.68 149.88 463.91 149.88C440.26 149.88 424.72 166.61 424.72 188.74V242.44C424.72 264.57 440.26 281.3 463.91 281.3C488.23 281.3 502.4 265.25 502.4 242.44V220.55L463.55 220.54Z" fill="#E30613"/>
<path d="M454.21 104.19C436.97 97.37 418.31 93.63 398.83 93.63C383.56 93.63 368.8 95.93 354.82 100.2C323.88 49.17 264.16 14.52 195.71 14.52C110.49 14.52 38.81 68.22 19.35 140.39H41.55C60.68 80.12 122.55 35.86 195.72 35.86C255.01 35.86 306.88 64.92 334.6 108.02C338.46 114.03 341.86 120.31 344.74 126.82C351.19 123.86 357.89 121.4 364.81 119.51C375.69 116.54 387.1 114.96 398.84 114.96C418.54 114.96 437.28 119.41 454.22 127.41V104.19H454.21Z" fill="#009FE3"/>
</svg>